<?xml version="1.0" encoding="UTF-8"?>
<svg id="_图层_2" data-name="图层 2" xmlns="http://www.w3.org/2000/svg" xmlns:xlink="http://www.w3.org/1999/xlink" viewBox="0 0 1163.34 228.99">
  <defs>
    <style>
      .cls-1 {
        fill: url(#_未命名的渐变_18-2);
      }

      .cls-2 {
        fill: url(#_未命名的渐变_18-3);
      }

      .cls-3 {
        fill: #3d3a39;
      }

      .cls-4 {
        fill: url(#_未命名的渐变_18);
      }
    </style>
    <linearGradient id="_未命名的渐变_18" data-name="未命名的渐变 18" x1="71.51" y1="194.48" x2="140.53" y2="194.48" gradientUnits="userSpaceOnUse">
      <stop offset="0" stop-color="#ea6052"/>
      <stop offset=".2" stop-color="#e05449"/>
      <stop offset=".56" stop-color="#c83434"/>
      <stop offset="1" stop-color="#a50514"/>
    </linearGradient>
    <linearGradient id="_未命名的渐变_18-2" data-name="未命名的渐变 18" x1="0" y1="137.73" x2="112.79" y2="137.73" xlink:href="#_未命名的渐变_18"/>
    <linearGradient id="_未命名的渐变_18-3" data-name="未命名的渐变 18" x1="70.74" y1="100.34" x2="268.16" y2="100.34" xlink:href="#_未命名的渐变_18"/>
  </defs>
  <g id="_图层_1-2" data-name="图层 1">
    <g>
      <g>
        <path class="cls-4" d="M106.02,159.97c-19.03,0-34.51,15.48-34.51,34.51s15.48,34.51,34.51,34.51,34.51-15.48,34.51-34.51-15.48-34.51-34.51-34.51Z"/>
        <path class="cls-1" d="M106.02,151.89c1.63,0,3.23.11,4.81.29,1.23-4.62,1.95-9.45,1.95-14.46,0-31.1-25.3-56.39-56.39-56.39S0,106.63,0,137.73s25.3,56.39,56.39,56.39c2.41,0,4.76-.2,7.09-.49.46-23.09,19.35-41.73,42.54-41.73Z"/>
        <path class="cls-2" d="M167.82,0c-46.62,0-85.81,31.8-97.08,74.88,28.66,6.54,50.12,32.22,50.12,62.84,0,5.57-.75,10.97-2.08,16.13,17.27,5.43,29.83,21.59,29.83,40.63,0,1.45-.08,2.89-.22,4.3,6.29,1.24,12.78,1.91,19.43,1.91,55.42,0,100.34-44.92,100.34-100.34S223.24,0,167.82,0Z"/>
      </g>
      <g>
        <path class="cls-3" d="M599.38,153.55c-5.84,2.82-11.41,3.58-16.7,2.3-5.29-1.28-9.66-4.34-13.1-9.16l60.07-28.94-1.67-3.56c-6-12.21-14.5-20.26-25.5-24.16-11-3.9-22.37-3.02-34.11,2.63-11.05,5.33-18.41,13.47-22.09,24.44-3.67,10.97-2.74,22.08,2.79,33.34,5.4,10.99,13.57,18.36,24.5,22.12,10.94,3.76,22.25,3.55,33.94-2.08,7.53-3.63,13.39-8.81,17.57-14.1,4.18-5.28,5.46-8.07,6.91-13.86l-17.44-5.64c-2.65,7.26-8.18,13.29-15.17,16.66ZM565.4,118.83c2.51-4.79,6.37-8.44,11.59-10.95,4.8-2.32,9.66-3.06,14.56-2.23,4.9.83,8.98,3,12.24,6.52l-40.54,19.53c-.14-5.58.58-9.87,2.16-12.87Z"/>
        <polygon class="cls-3" points="315.23 83.13 344.09 83.13 344.09 173.27 365.72 173.27 365.72 83.13 395.11 83.13 395.11 62.31 315.23 62.31 315.23 83.13"/>
        <path class="cls-3" d="M529.63,89.09c-14.54,1.58-18.2,9.28-18.2,9.28v-7.16h-17.82v82.06h20.64v-33.19l-.08-4c0-11.46,1.11-19.16,3.31-23.08,2.21-3.92,4.94-5.46,8.11-5.88,2.7-.36,8.41-.54,11.35-.3l1.14-16.67c-2.94-1.41-6.95-1.13-8.45-1.06Z"/>
        <path class="cls-3" d="M449.07,89.09c-4.22,0-8.38.87-12.49,2.6-4.11,1.73-8.2,4.33-12.26,7.81v-39.98h-20.64v113.74h20.64v-32.96c0-8.8.3-14.43.91-16.89,1.17-4.78,3.26-8.55,6.28-11.31,3.02-2.77,6.64-4.15,10.85-4.15,3.25,0,5.98.83,8.19,2.49,2.21,1.66,3.77,4.18,4.68,7.54.91,3.37,1.37,9.81,1.37,19.31v35.98h20.49v-54.23c0-9.46-2.41-16.62-7.24-21.5-5.64-5.63-12.57-8.45-20.79-8.45Z"/>
        <polygon class="cls-3" points="1123.37 130.54 1151.83 99.89 1132.95 91.2 1102.34 125.04 1102.34 59.52 1081.54 59.52 1081.54 173.27 1102.34 173.27 1102.34 135.45 1137.52 173.27 1163.34 173.27 1123.37 130.54"/>
        <path class="cls-3" d="M1051.49,94.9c-6.88-3.87-14.23-5.81-22.05-5.81-10.82,0-20.39,3.72-28.71,11.16-9.49,8.55-14.24,19.23-14.24,32.06,0,11.97,4.2,22.14,12.6,30.51,8.41,8.37,18.55,12.56,30.43,12.56,8.07,0,15.46-1.9,22.16-5.7,6.7-3.8,12-9.06,15.88-15.8,3.88-6.74,5.83-13.98,5.83-21.72s-1.93-14.86-5.79-21.5c-3.86-6.64-9.23-11.89-16.1-15.76ZM1045.95,149.51c-4.32,4.48-9.74,6.71-16.25,6.71s-11.89-2.21-16.14-6.64c-4.25-4.42-6.37-10.21-6.37-17.35s2.15-12.64,6.44-17.09c4.3-4.45,9.68-6.67,16.13-6.67s12.04,2.2,16.29,6.6c4.25,4.4,6.37,10.12,6.37,17.16s-2.16,12.8-6.49,17.27Z"/>
        <path class="cls-3" d="M858.61,109.56c4.42-3.11,7.6-6.44,9.57-9.99,1.96-3.55,2.94-7.5,2.94-11.86,0-6.69-2.15-12.49-6.47-17.42-4.31-4.92-10.12-8.29-17.41-10.11-5.14-1.35-13.26-2.02-24.37-2.02h-19.15v114.37h34.15c9.83,0,17.55-1.31,23.13-3.93,5.58-2.62,10.14-6.57,13.68-11.86,3.54-5.29,5.31-11.14,5.31-17.57s-1.71-12.48-5.13-17.38c-3.42-4.9-8.83-8.98-16.23-12.24ZM823.4,77.76h9.48c5.32,0,9.28,1.05,11.88,3.15,2.61,2.1,3.91,6.1,3.91,9.68,0,3.84-1.37,6.87-4.12,9.1-2.74,2.23-6.94,3.34-12.59,3.34h-8.56v-25.27ZM852.18,148.35c-3.35,2.28-9.84,3.42-19.47,3.42h-9.3v-29.31h8.31c9.13,0,15.66,1.43,19.59,4.28,3.93,2.85,5.9,6.74,5.9,11.66,0,4.35-1.68,7.67-5.02,9.95Z"/>
        <path class="cls-3" d="M705.53,100.26c-3.7-3.72-7.73-6.51-12.1-8.37-4.36-1.86-9.03-2.79-13.99-2.79-10.8,0-19.98,4.05-27.54,12.14-7.56,8.1-11.34,18.48-11.34,31.15s3.9,22.44,11.72,30.66c7.81,8.22,17.06,12.33,27.77,12.33,4.77,0,9.19-.84,13.28-2.53,4.08-1.68,8.15-4.44,12.21-8.26l20.79,8.67v-82.06h-20.79v9.05ZM699.99,149.77c-4.3,4.5-9.72,6.75-16.25,6.75s-11.65-2.29-15.98-6.86c-4.33-4.57-6.49-10.41-6.49-17.5s2.12-12.81,6.37-17.31c4.25-4.5,9.59-6.75,16.02-6.75s12.02,2.21,16.32,6.64c4.3,4.42,6.45,10.21,6.45,17.35s-2.15,13.19-6.45,17.69Z"/>
        <polygon class="cls-3" points="770.65 60.96 749.86 71.12 749.86 91.2 739.2 91.2 739.2 108.93 749.86 108.93 749.86 173.27 770.65 173.27 770.65 108.93 782.99 108.93 782.99 91.2 770.65 91.2 770.65 60.96"/>
        <path class="cls-3" d="M955.48,94.9c-6.88-3.87-14.23-5.81-22.05-5.81-10.82,0-20.39,3.72-28.72,11.16-9.49,8.55-14.24,19.23-14.24,32.06,0,11.97,4.2,22.14,12.6,30.51,8.4,8.37,18.55,12.56,30.43,12.56,8.07,0,15.46-1.9,22.16-5.7,6.7-3.8,11.99-9.06,15.88-15.8,3.88-6.74,5.83-13.98,5.83-21.72s-1.93-14.86-5.79-21.5c-3.86-6.64-9.23-11.89-16.11-15.76ZM949.95,149.51c-4.32,4.48-9.74,6.71-16.25,6.71s-11.89-2.21-16.14-6.64c-4.25-4.42-6.37-10.21-6.37-17.35s2.15-12.64,6.45-17.09c4.3-4.45,9.68-6.67,16.14-6.67s12.04,2.2,16.29,6.6c4.25,4.4,6.37,10.12,6.37,17.16s-2.16,12.8-6.48,17.27Z"/>
      </g>
    </g>
  </g>
</svg>