<svg width="202" height="25" viewBox="0 0 202 25" fill="none" xmlns="http://www.w3.org/2000/svg">
<g clip-path="url(#clip0_12506_6441)">
<path d="M11.9279 17.2661C9.94095 17.2661 8.32446 18.8887 8.32446 20.8831C8.32446 22.8774 9.94095 24.5 11.9279 24.5C13.9149 24.5 15.5313 22.8774 15.5313 20.8831C15.5313 18.8887 13.9149 17.2661 11.9279 17.2661Z" fill="url(#paint0_linear_12506_6441)"/>
<path d="M11.9278 16.4196C12.0979 16.4196 12.2654 16.4317 12.4304 16.4501C12.5588 15.9653 12.634 15.4589 12.634 14.9348C12.634 11.6757 9.99273 9.02457 6.74584 9.02457C3.49895 9.02457 0.857056 11.6757 0.857056 14.9348C0.857056 18.1938 3.49831 20.845 6.7452 20.845C6.99618 20.845 7.2421 20.824 7.48486 20.793C7.5329 18.3734 9.50531 16.4196 11.9272 16.4196H11.9278Z" fill="url(#paint1_linear_12506_6441)"/>
<path d="M18.3799 0.5C13.5121 0.5 9.42059 3.83266 8.24347 8.34813C11.2362 9.03408 13.4767 11.7252 13.4767 14.9341C13.4767 15.5179 13.3989 16.0833 13.2592 16.6246C15.0622 17.1944 16.374 18.8874 16.374 20.8824C16.374 21.0347 16.3664 21.1851 16.3512 21.333C17.0074 21.4624 17.6851 21.5328 18.3793 21.5328C24.1656 21.5328 28.8564 16.8245 28.8564 11.0164C28.8564 5.20837 24.1663 0.5 18.3799 0.5Z" fill="url(#paint2_linear_12506_6441)"/>
</g>
<path d="M82.2413 17.8261C81.3911 18.2299 80.5802 18.3388 79.8101 18.1555C79.04 17.9722 78.4039 17.534 77.9031 16.8438L86.6478 12.6999L86.4047 12.1902C85.5313 10.4418 84.2939 9.28915 82.6925 8.73071C81.0912 8.17227 79.436 8.29827 77.7269 9.1073C76.1183 9.8705 75.0469 11.0361 74.5112 12.6069C73.9769 14.1777 74.1123 15.7685 74.9173 17.3808C75.7034 18.9545 76.8928 20.0098 78.4839 20.5482C80.0765 21.0866 81.723 21.0565 83.4248 20.2503C84.521 19.7306 85.3741 18.9888 85.9826 18.2314C86.5911 17.4739 86.7774 17.0758 86.9885 16.2467L84.4496 15.4392C84.0639 16.4787 83.2588 17.3421 82.2413 17.8247V17.8261ZM77.2946 12.856C77.66 12.1701 78.2219 11.6475 78.9818 11.2881C79.6806 10.9559 80.3881 10.8499 81.1014 10.9688C81.8147 11.0876 82.4087 11.3983 82.8832 11.9024L76.9816 14.6989C76.9612 13.8999 77.066 13.2856 77.296 12.856H77.2946Z" fill="#1A1A1A"/>
<path d="M40.8758 7.7427H45.0771V20.6498H48.2259V7.7427H52.5044V4.76149H40.8758V7.7427Z" fill="#1A1A1A"/>
<path d="M72.0873 8.59613C69.9707 8.82237 69.4379 9.92493 69.4379 9.92493V8.89969H66.8437V20.6499H69.8484V15.8974L69.8367 15.3246C69.8367 13.6837 69.9983 12.5811 70.3186 12.0198C70.6403 11.4585 71.0377 11.238 71.4992 11.1778C71.8923 11.1263 72.7235 11.1005 73.1515 11.1349L73.3175 8.74791C72.8895 8.54601 72.3057 8.58611 72.0873 8.59613Z" fill="#1A1A1A"/>
<path d="M60.3597 8.5961C59.7454 8.5961 59.1398 8.72068 58.5415 8.9684C57.9432 9.21612 57.3477 9.58841 56.7567 10.0867V4.36198H53.752V20.6484H56.7567V15.9289C56.7567 14.6688 56.8004 13.8626 56.8892 13.5104C57.0595 12.8259 57.3638 12.2861 57.8034 11.8909C58.243 11.4943 58.77 11.2967 59.3829 11.2967C59.856 11.2967 60.2534 11.4155 60.5752 11.6532C60.8969 11.8909 61.124 12.2517 61.2565 12.7329C61.3889 13.2154 61.4559 14.1376 61.4559 15.4979V20.6498H64.4388V12.8846C64.4388 11.5301 64.0879 10.5048 63.3848 9.80606C62.5637 8.9999 61.5549 8.5961 60.3583 8.5961H60.3597Z" fill="#1A1A1A"/>
<path d="M158.522 14.5313L162.665 10.1426L159.916 8.89823L155.46 13.7438V4.36198H152.432V20.6498H155.46V15.2344L160.582 20.6498H164.34L158.522 14.5313Z" fill="#1A1A1A"/>
<path d="M148.058 9.42806C147.056 8.87392 145.986 8.59613 144.848 8.59613C143.273 8.59613 141.879 9.1288 140.668 10.1941C139.287 11.4184 138.595 12.9477 138.595 14.7848C138.595 16.4988 139.207 17.955 140.43 19.1535C141.654 20.352 143.13 20.952 144.859 20.952C146.034 20.952 147.11 20.6799 148.085 20.1358C149.061 19.5917 149.832 18.8385 150.397 17.8734C150.962 16.9083 151.246 15.8716 151.246 14.7633C151.246 13.655 150.965 12.6355 150.403 11.6847C149.841 10.734 149.059 9.98221 148.059 9.42806H148.058ZM147.251 17.2477C146.622 17.8892 145.833 18.2085 144.886 18.2085C143.938 18.2085 143.155 17.892 142.536 17.2577C141.917 16.6248 141.609 15.7957 141.609 14.7733C141.609 13.751 141.922 12.9634 142.546 12.3262C143.172 11.689 143.955 11.3712 144.894 11.3712C145.833 11.3712 146.647 11.6862 147.266 12.3162C147.885 12.9462 148.193 13.7653 148.193 14.7733C148.193 15.7814 147.879 16.6062 147.248 17.2462L147.251 17.2477Z" fill="#1A1A1A"/>
<path d="M119.979 11.5272C120.622 11.0819 121.085 10.6051 121.372 10.0967C121.658 9.58842 121.8 9.02282 121.8 8.39851C121.8 7.44057 121.487 6.61006 120.858 5.90414C120.231 5.19964 119.385 4.71709 118.324 4.45649C117.576 4.26318 116.393 4.16724 114.776 4.16724H111.988V20.5439H116.96C118.391 20.5439 119.515 20.3563 120.327 19.9811C121.139 19.606 121.803 19.0404 122.318 18.2829C122.834 17.5254 123.091 16.6878 123.091 15.7671C123.091 14.8464 122.843 13.9801 122.345 13.2784C121.847 12.5768 121.059 11.9926 119.982 11.5258L119.979 11.5272ZM114.853 6.97377H116.233C117.008 6.97377 117.584 7.12412 117.963 7.42482C118.343 7.72552 118.532 8.29827 118.532 8.81089C118.532 9.36074 118.333 9.79461 117.932 10.1139C117.533 10.4332 116.922 10.5922 116.099 10.5922H114.853V6.97377ZM119.043 17.0815C118.555 17.408 117.611 17.5713 116.209 17.5713H114.855V13.3744H116.064C117.394 13.3744 118.344 13.5791 118.916 13.9872C119.488 14.3953 119.775 14.9523 119.775 15.6568C119.775 16.2797 119.531 16.7551 119.044 17.0815H119.043Z" fill="#1A1A1A"/>
<path d="M97.6942 10.1956C97.1555 9.66289 96.5689 9.26339 95.9327 8.99706C95.298 8.73072 94.6181 8.59756 93.8961 8.59756C92.3239 8.59756 90.9875 9.17748 89.8869 10.3359C88.7864 11.4957 88.2361 12.982 88.2361 14.7962C88.2361 16.6105 88.8038 18.0094 89.9422 19.1865C91.0792 20.3635 92.4258 20.952 93.9849 20.952C94.6793 20.952 95.3227 20.8317 95.9181 20.5897C96.5121 20.3492 97.1046 19.954 97.6956 19.407L100.722 20.6484V8.89826H97.6956V10.1941L97.6942 10.1956ZM96.8877 17.2863C96.2617 17.9307 95.4727 18.2529 94.5221 18.2529C93.5715 18.2529 92.8261 17.9249 92.1958 17.2706C91.5654 16.6162 91.251 15.78 91.251 14.7647C91.251 13.7495 91.5596 12.9305 92.1783 12.2861C92.797 11.6418 93.5744 11.3196 94.5104 11.3196C95.4465 11.3196 96.2602 11.636 96.8862 12.2704C97.5122 12.9033 97.8252 13.7323 97.8252 14.7547C97.8252 15.7771 97.5122 16.6434 96.8862 17.2878L96.8877 17.2863Z" fill="#1A1A1A"/>
<path d="M107.174 4.56818L104.148 6.02299V8.89825H102.596V11.437H104.148V20.6498H107.174V11.437H108.971V8.89825H107.174V4.56818Z" fill="#1A1A1A"/>
<path d="M134.081 9.42806C133.079 8.87392 132.009 8.59613 130.871 8.59613C129.296 8.59613 127.903 9.1288 126.69 10.1941C125.309 11.4184 124.617 12.9477 124.617 14.7848C124.617 16.4988 125.228 17.955 126.451 19.1535C127.674 20.352 129.152 20.952 130.881 20.952C132.056 20.952 133.132 20.6799 134.107 20.1358C135.083 19.5917 135.853 18.8385 136.419 17.8734C136.984 16.9083 137.268 15.8716 137.268 14.7633C137.268 13.655 136.987 12.6355 136.425 11.6847C135.863 10.734 135.081 9.98221 134.08 9.42806H134.081ZM133.276 17.2477C132.647 17.8892 131.858 18.2085 130.91 18.2085C129.963 18.2085 129.179 17.892 128.561 17.2577C127.942 16.6248 127.633 15.7957 127.633 14.7733C127.633 13.751 127.946 12.9634 128.572 12.3262C129.198 11.689 129.982 11.3712 130.922 11.3712C131.862 11.3712 132.675 11.6862 133.293 12.3162C133.912 12.9462 134.221 13.7653 134.221 14.7733C134.221 15.7814 133.906 16.6062 133.277 17.2462L133.276 17.2477Z" fill="#1A1A1A"/>
<g clip-path="url(#clip1_12506_6441)">
<path d="M178.101 4.2495C179.248 4.2495 180.176 4.39366 180.962 4.60677C181.633 4.78906 182.098 5.40696 182.098 6.11051C182.098 7.12067 181.165 7.85453 180.194 7.62418C179.595 7.48212 178.951 7.39698 178.279 7.39698C174.749 7.39698 172.75 9.7124 172.75 12.5C172.75 15.2876 174.749 17.603 178.279 17.603C178.951 17.603 179.595 17.5179 180.194 17.3758C181.166 17.1455 182.098 17.8793 182.098 18.8895C182.098 19.593 181.633 20.2115 180.962 20.3932C180.177 20.6063 179.248 20.7505 178.101 20.7505C173.105 20.7505 169.508 17.0635 169.508 12.5C169.508 7.93653 173.105 4.2495 178.101 4.2495Z" fill="#EB2D17"/>
<path d="M187.693 7.62157H185.028C184.182 7.62157 183.496 6.92689 183.496 6.0703C183.496 5.2137 184.182 4.51902 185.028 4.51902H193.644C194.49 4.51902 195.176 5.2137 195.176 6.0703C195.176 6.92689 194.49 7.62157 193.644 7.62157H190.935V18.8595C190.935 19.7547 190.209 20.4805 189.314 20.4805C188.419 20.4805 187.693 19.7547 187.693 18.8595V7.62157Z" fill="#EB2D17"/>
<path d="M199.006 4.51902C199.895 4.51902 200.616 5.24869 200.616 6.14864V18.8503C200.616 19.7503 199.895 20.4799 199.006 20.4799C198.117 20.4799 197.396 19.7503 197.396 18.8503V6.14917C197.396 5.24922 198.117 4.51954 199.006 4.51954V4.51902Z" fill="#EB2D17"/>
</g>
<defs>
<linearGradient id="paint0_linear_12506_6441" x1="8.32446" y1="20.8831" x2="15.5307" y2="20.8831" gradientUnits="userSpaceOnUse">
<stop stop-color="#EA6052"/>
<stop offset="0.2" stop-color="#E05449"/>
<stop offset="0.56" stop-color="#C83434"/>
<stop offset="1" stop-color="#A50514"/>
</linearGradient>
<linearGradient id="paint1_linear_12506_6441" x1="0.857056" y1="14.9348" x2="12.634" y2="14.9348" gradientUnits="userSpaceOnUse">
<stop stop-color="#EA6052"/>
<stop offset="0.2" stop-color="#E05449"/>
<stop offset="0.56" stop-color="#C83434"/>
<stop offset="1" stop-color="#A50514"/>
</linearGradient>
<linearGradient id="paint2_linear_12506_6441" x1="8.24347" y1="11.0164" x2="28.857" y2="11.0164" gradientUnits="userSpaceOnUse">
<stop stop-color="#EA6052"/>
<stop offset="0.2" stop-color="#E05449"/>
<stop offset="0.56" stop-color="#C83434"/>
<stop offset="1" stop-color="#A50514"/>
</linearGradient>
<clipPath id="clip0_12506_6441">
<rect width="28" height="24" fill="white" transform="translate(0.857056 0.5)"/>
</clipPath>
<clipPath id="clip1_12506_6441">
<rect width="31.1081" height="16.501" fill="white" transform="translate(169.508 4.2495)"/>
</clipPath>
</defs>
</svg>
